<svg width="682" height="110" viewBox="0 0 682 110" fill="none" xmlns="http://www.w3.org/2000/svg">
<path d="M74.616 42.744C68.8133 35.6613 61.6453 32.12 53.112 32.12C49.3573 32.12 45.8587 32.8027 42.616 34.168C39.4587 35.5333 36.728 37.4107 34.424 39.8C32.12 42.104 30.2853 44.8773 28.92 48.12C27.64 51.3627 27 54.8613 27 58.616C27 62.456 27.64 65.9973 28.92 69.24C30.2853 72.4827 32.12 75.2987 34.424 77.688C36.8133 80.0773 39.5867 81.9547 42.744 83.32C45.9013 84.6853 49.3147 85.368 52.984 85.368C61.0053 85.368 68.216 81.9547 74.616 75.128V104.824L72.056 105.72C68.216 107.085 64.632 108.067 61.304 108.664C57.976 109.347 54.6907 109.688 51.448 109.688C44.792 109.688 38.392 108.451 32.248 105.976C26.1893 103.416 20.8133 99.8747 16.12 95.352C11.512 90.744 7.8 85.3253 4.984 79.096C2.168 72.7813 0.76 65.912 0.76 58.488C0.76 51.064 2.12533 44.28 4.856 38.136C7.672 31.9067 11.384 26.5733 15.992 22.136C20.6853 17.6133 26.104 14.1147 32.248 11.64C38.392 9.07999 44.8347 7.8 51.576 7.8C55.416 7.8 59.1707 8.22666 62.84 9.07999C66.5947 9.84799 70.52 11.0853 74.616 12.792V42.744ZM88.311 0.759995H111.479V49.656C114.636 45.816 117.836 43.256 121.079 41.976C124.322 40.6107 128.119 39.928 132.471 39.928C140.748 39.928 146.978 42.232 151.159 46.84C155.426 51.3627 157.559 57.5067 157.559 65.272V107H134.391V73.848C134.391 70.52 134.135 67.832 133.623 65.784C133.111 63.736 132.258 62.1573 131.063 61.048C129.015 59.256 126.54 58.36 123.639 58.36C119.714 58.36 116.684 59.5547 114.551 61.944C112.503 64.248 111.479 67.576 111.479 71.928V107H88.311V0.759995ZM194.815 73.976C194.815 76.1093 195.199 78.1147 195.967 79.992C196.735 81.784 197.759 83.3627 199.039 84.728C200.404 86.0933 201.983 87.16 203.775 87.928C205.652 88.696 207.658 89.08 209.791 89.08C211.839 89.08 213.759 88.696 215.551 87.928C217.428 87.16 219.007 86.0933 220.287 84.728C221.652 83.3627 222.719 81.784 223.487 79.992C224.34 78.2 224.767 76.28 224.767 74.232C224.767 72.184 224.34 70.264 223.487 68.472C222.719 66.5947 221.652 64.9733 220.287 63.608C219.007 62.2427 217.428 61.176 215.551 60.408C213.759 59.64 211.839 59.256 209.791 59.256C207.658 59.256 205.652 59.64 203.775 60.408C201.983 61.176 200.404 62.2427 199.039 63.608C197.759 64.9733 196.735 66.552 195.967 68.344C195.199 70.0507 194.815 71.928 194.815 73.976ZM223.999 41.336H247.295V107H223.999V99.704C219.05 105.933 212.351 109.048 203.903 109.048C199.124 109.048 194.73 108.195 190.719 106.488C186.708 104.696 183.21 102.221 180.223 99.064C177.236 95.9067 174.89 92.1947 173.183 87.928C171.562 83.6613 170.751 79.0107 170.751 73.976C170.751 69.2827 171.562 64.8453 173.183 60.664C174.804 56.3973 177.066 52.6853 179.967 49.528C182.868 46.3707 186.324 43.896 190.335 42.104C194.346 40.2267 198.783 39.288 203.647 39.288C211.839 39.288 218.623 42.1467 223.999 47.864V41.336ZM288.917 60.664V107H265.749V60.664H258.069V41.336H265.749V21.624H288.917V41.336H302.101V60.664H288.917ZM356.487 107V10.488H381.575L427.911 69.496V10.488H452.871V107H427.911L381.575 47.992V107H356.487ZM493.824 73.848C493.824 76.0667 494.208 78.1147 494.976 79.992C495.829 81.784 496.896 83.3627 498.176 84.728C499.541 86.0933 501.12 87.16 502.912 87.928C504.789 88.696 506.752 89.08 508.8 89.08C510.848 89.08 512.768 88.696 514.56 87.928C516.437 87.16 518.016 86.0933 519.296 84.728C520.661 83.3627 521.728 81.784 522.496 79.992C523.349 78.1147 523.776 76.1093 523.776 73.976C523.776 71.928 523.349 70.008 522.496 68.216C521.728 66.3387 520.661 64.7173 519.296 63.352C518.016 61.9867 516.437 60.92 514.56 60.152C512.768 59.384 510.848 59 508.8 59C506.752 59 504.789 59.384 502.912 60.152C501.12 60.92 499.541 61.9867 498.176 63.352C496.896 64.7173 495.829 66.296 494.976 68.088C494.208 69.88 493.824 71.8 493.824 73.848ZM469.376 73.592C469.376 68.728 470.357 64.2053 472.32 60.024C474.283 55.7573 477.013 52.088 480.512 49.016C484.011 45.8587 488.149 43.384 492.928 41.592C497.792 39.8 503.083 38.904 508.8 38.904C514.432 38.904 519.637 39.8 524.416 41.592C529.28 43.2987 533.461 45.7307 536.96 48.888C540.544 51.96 543.317 55.672 545.28 60.024C547.243 64.2907 548.224 69.0267 548.224 74.232C548.224 79.4373 547.2 84.216 545.152 88.568C543.189 92.8347 540.459 96.5467 536.96 99.704C533.461 102.776 529.237 105.165 524.288 106.872C519.424 108.579 514.133 109.432 508.416 109.432C502.784 109.432 497.579 108.579 492.8 106.872C488.021 105.165 483.883 102.733 480.384 99.576C476.971 96.4187 474.283 92.664 472.32 88.312C470.357 83.8747 469.376 78.968 469.376 73.592ZM576.106 41.336L591.85 75.896L608.234 41.336H622.826L639.21 76.92L655.722 41.336H681.45L647.146 107H631.658L615.274 71.032L599.658 107H583.914L550.25 41.336H576.106Z" fill="url(#paint0_linear_1_2)"/>
<defs>
<linearGradient id="paint0_linear_1_2" x1="20.6343" y1="50.4615" x2="702.507" y2="50.4615" gradientUnits="userSpaceOnUse">
<stop stop-color="#FF9600"/>
<stop offset="1" stop-color="#FF3900"/>
</linearGradient>
</defs>
</svg>
