<svg width="300" height="300" viewBox="0 0 300 300" fill="none" xmlns="http://www.w3.org/2000/svg">
<g clip-path="url(#clip0_2_10)">
<rect width="300" height="300" rx="40" fill="white"/>
<rect width="300" height="300" rx="40" fill="url(#paint0_linear_2_10)"/>
<path d="M128.616 135.744C122.813 128.661 115.645 125.12 107.112 125.12C103.357 125.12 99.8587 125.803 96.616 127.168C93.4587 128.533 90.728 130.411 88.424 132.8C86.12 135.104 84.2853 137.877 82.92 141.12C81.64 144.363 81 147.861 81 151.616C81 155.456 81.64 158.997 82.92 162.24C84.2853 165.483 86.12 168.299 88.424 170.688C90.8133 173.077 93.5867 174.955 96.744 176.32C99.9013 177.685 103.315 178.368 106.984 178.368C115.005 178.368 122.216 174.955 128.616 168.128V197.824L126.056 198.72C122.216 200.085 118.632 201.067 115.304 201.664C111.976 202.347 108.691 202.688 105.448 202.688C98.792 202.688 92.392 201.451 86.248 198.976C80.1893 196.416 74.8133 192.875 70.12 188.352C65.512 183.744 61.8 178.325 58.984 172.096C56.168 165.781 54.76 158.912 54.76 151.488C54.76 144.064 56.1253 137.28 58.856 131.136C61.672 124.907 65.384 119.573 69.992 115.136C74.6853 110.613 80.104 107.115 86.248 104.64C92.392 102.08 98.8347 100.8 105.576 100.8C109.416 100.8 113.171 101.227 116.84 102.08C120.595 102.848 124.52 104.085 128.616 105.792V135.744ZM144.487 200V103.488H169.575L215.911 162.496V103.488H240.871V200H215.911L169.575 140.992V200H144.487Z" fill="white"/>
</g>
<defs>
<linearGradient id="paint0_linear_2_10" x1="11.194" y1="138.462" x2="308.955" y2="138.462" gradientUnits="userSpaceOnUse">
<stop stop-color="#FF9600"/>
<stop offset="1" stop-color="#FF3900"/>
</linearGradient>
<clipPath id="clip0_2_10">
<rect width="300" height="300" rx="40" fill="white"/>
</clipPath>
</defs>
</svg>
